<?xml version="1.0" standalone="no"?>
<!DOCTYPE svg PUBLIC "-//W3C//DTD SVG 20010904//EN"
 "http://www.w3.org/TR/2001/REC-SVG-20010904/DTD/svg10.dtd">
<svg version="1.0" xmlns="http://www.w3.org/2000/svg"
 width="500.000000pt" height="118.000000pt" viewBox="0 0 500.000000 118.000000"
 preserveAspectRatio="xMidYMid meet">

<g transform="translate(0.000000,118.000000) scale(0.100000,-0.100000)"
fill="#000000" stroke="none">
<path d="M2222 1159 c-21 -8 -22 -14 -22 -128 0 -129 -1 -131 -60 -131 -33 0
-40 -14 -40 -84 0 -63 14 -84 60 -88 l35 -3 6 -220 c7 -238 9 -256 43 -298 28
-35 76 -49 186 -54 103 -6 110 1 110 98 0 73 -5 79 -64 79 -62 0 -67 15 -64
216 l3 179 60 5 60 5 3 83 3 82 -50 0 c-83 0 -81 -3 -81 130 0 78 -4 121 -11
126 -17 10 -152 12 -177 3z"/>
<path d="M116 1151 c-10 -16 -16 -598 -8 -801 l7 -195 90 -3 c50 -2 100 0 113
3 l23 6 -3 379 c-2 209 0 380 4 380 13 0 38 -45 38 -69 0 -14 4 -38 9 -55 5
-17 21 -85 36 -151 14 -66 30 -133 35 -150 5 -16 12 -48 16 -70 3 -22 10 -44
14 -50 4 -5 10 -26 13 -45 5 -31 16 -77 36 -150 6 -25 8 -25 116 -25 l110 0
12 55 c7 30 17 73 22 95 5 22 18 76 29 120 11 44 28 112 36 150 9 39 21 86 26
105 5 19 11 46 14 60 17 85 30 136 36 140 4 3 12 14 18 25 10 17 11 11 12 -35
0 -30 1 -203 3 -385 l2 -330 110 0 110 0 0 500 0 500 -165 3 c-91 1 -174 0
-185 -2 -14 -4 -24 -19 -32 -48 -21 -81 -55 -223 -63 -268 -4 -25 -16 -76 -25
-115 -9 -38 -21 -93 -25 -122 -5 -29 -13 -68 -20 -87 -10 -31 -14 -34 -30 -26
-18 9 -32 54 -51 160 -4 25 -15 74 -24 110 -9 36 -20 85 -25 110 -6 25 -17 74
-25 110 -9 36 -20 87 -25 114 -5 27 -15 53 -22 58 -18 11 -355 10 -362 -1z"/>
<path d="M1587 903 c-81 -14 -184 -105 -217 -192 l-19 -49 22 -6 c29 -8 146
-7 175 0 12 4 22 13 22 22 0 9 12 29 27 44 23 24 34 28 83 28 42 0 61 -5 72
-17 23 -27 42 -83 32 -92 -10 -9 -96 -30 -169 -42 -124 -19 -177 -40 -228 -88
-40 -37 -57 -83 -57 -156 0 -52 5 -69 31 -109 45 -67 90 -93 169 -96 130 -6
144 -3 191 38 52 45 77 44 81 -1 l3 -32 95 0 95 0 3 235 c3 287 -8 354 -71
426 -58 65 -103 84 -217 89 -52 2 -108 1 -123 -2z m197 -429 c21 -8 19 -30 -7
-84 -30 -60 -76 -90 -139 -90 -60 0 -84 12 -92 45 -15 61 9 86 108 115 66 19
105 23 130 14z"/>
<path d="M2905 901 c-63 -17 -102 -40 -146 -87 -157 -169 -152 -452 11 -583
76 -61 138 -81 250 -81 88 0 105 3 163 30 71 33 146 105 171 165 9 21 16 41
16 46 0 5 -43 9 -96 9 -96 0 -97 0 -135 -35 -81 -73 -231 -38 -271 64 -12 30
-13 43 -5 48 7 5 125 8 264 8 138 0 255 3 259 7 14 15 -13 172 -39 229 -29 62
-112 145 -156 155 -14 4 -32 11 -39 17 -16 13 -206 19 -247 8z m202 -166 c42
-21 65 -50 61 -77 -3 -23 -4 -23 -148 -23 -132 0 -145 2 -148 18 -4 21 20 52
63 78 37 23 129 25 172 4z"/>
<path d="M4520 902 c-74 -14 -151 -72 -176 -131 -19 -44 -18 -130 2 -169 18
-38 79 -90 114 -99 14 -3 30 -9 35 -13 6 -4 28 -11 50 -14 38 -7 59 -12 143
-37 44 -13 82 -46 82 -69 0 -10 -11 -29 -25 -44 -20 -22 -32 -26 -80 -26 -68
0 -116 26 -144 78 -11 20 -19 22 -110 22 -118 0 -125 -7 -84 -83 33 -60 72
-101 116 -121 92 -42 111 -46 224 -46 103 0 119 3 166 26 29 14 65 38 80 53
73 68 88 193 33 266 -48 62 -91 81 -274 122 -57 12 -94 26 -115 45 -31 26 -32
27 -17 55 13 24 23 28 65 31 27 2 59 1 72 -2 25 -7 73 -54 73 -73 0 -16 52
-25 130 -21 63 3 65 4 68 32 2 16 -1 33 -7 39 -6 6 -11 18 -11 26 0 28 -83
103 -140 128 -58 26 -197 39 -270 25z"/>
<path d="M3505 866 c-10 -53 4 -515 17 -560 17 -58 50 -99 107 -129 42 -23 60
-27 135 -27 75 0 92 3 125 25 22 13 42 29 46 35 13 22 34 9 37 -22 l3 -33 97
-3 97 -3 6 33 c3 18 4 186 3 373 l-3 340 -100 0 -100 0 -7 -240 c-3 -132 -9
-252 -13 -267 -16 -61 -94 -93 -168 -69 -25 9 -41 23 -54 49 -16 33 -18 65
-19 272 0 129 -1 241 -2 248 -1 9 -30 12 -102 12 l-99 0 -6 -34z"/>
</g>
</svg>
