<?xml version="1.0" standalone="no"?>
<!DOCTYPE svg PUBLIC "-//W3C//DTD SVG 20010904//EN"
 "http://www.w3.org/TR/2001/REC-SVG-20010904/DTD/svg10.dtd">
<svg version="1.0" xmlns="http://www.w3.org/2000/svg"
 width="500.000000pt" height="500.000000pt" viewBox="0 0 500.000000 500.000000"
 preserveAspectRatio="xMidYMid meet">

<g transform="translate(0.000000,500.000000) scale(0.100000,-0.100000)"
fill="#000000" stroke="none">
<path d="M2403 3072 l-43 -3 0 -50 c0 -42 -3 -49 -20 -49 -16 0 -20 -7 -20
-35 0 -28 4 -35 19 -35 17 0 19 -10 23 -101 4 -117 12 -129 90 -129 l48 0 0
34 c0 28 -4 35 -22 38 -21 3 -23 9 -26 81 -3 77 -3 77 23 77 22 0 25 4 25 35
0 30 -3 35 -25 35 -22 0 -24 4 -27 53 l-3 52 -42 -3z"/>
<path d="M1520 2870 l0 -200 50 0 50 0 1 148 1 147 36 -147 36 -148 47 0 47 0
39 158 38 157 3 -157 3 -158 44 0 45 0 0 200 0 201 -77 -3 -78 -3 -29 -133
c-17 -72 -33 -129 -37 -125 -4 5 -19 65 -35 136 l-28 127 -78 0 -78 0 0 -200z"/>
<path d="M2109 2968 c-40 -10 -73 -40 -84 -75 -6 -21 -3 -23 37 -23 32 0 46 5
56 20 14 22 42 26 60 8 16 -16 15 -38 -3 -38 -43 0 -121 -25 -142 -46 -27 -27
-31 -78 -8 -111 29 -42 133 -49 157 -11 5 10 8 8 8 -4 0 -15 9 -18 45 -18 l45
0 0 111 c0 86 -4 117 -17 140 -26 44 -92 64 -154 47z m84 -189 c-13 -47 -93
-63 -93 -19 0 13 10 22 33 29 54 15 66 14 60 -10z"/>
<path d="M2637 2966 c-48 -18 -62 -29 -81 -70 -67 -141 67 -281 203 -214 27
13 53 37 64 56 l19 32 -41 0 c-23 0 -53 -7 -66 -16 -15 -10 -34 -14 -49 -10
-26 6 -56 31 -56 47 0 5 49 9 110 9 121 0 117 -2 99 65 -14 51 -53 92 -98 105
-46 13 -58 12 -104 -4z m94 -66 c10 -6 19 -17 19 -25 0 -11 -13 -15 -55 -15
-41 0 -55 4 -55 15 0 29 54 44 91 25z"/>
<path d="M3290 2969 c-45 -13 -70 -43 -70 -85 0 -43 26 -69 82 -84 73 -20 90
-29 86 -48 -5 -26 -53 -27 -77 -3 -14 14 -34 21 -61 21 -44 0 -50 -11 -24 -48
28 -41 78 -57 162 -54 47 3 92 49 92 94 0 46 -30 73 -104 92 -63 16 -82 28
-72 45 11 18 54 13 76 -9 21 -21 90 -28 90 -9 0 21 -33 67 -56 78 -37 16 -87
20 -124 10z"/>
<path d="M2890 2855 c0 -140 11 -169 70 -185 31 -8 47 -7 75 4 19 8 35 11 35
5 0 -5 20 -9 45 -9 l45 0 0 150 0 150 -45 0 -45 0 0 -104 c0 -114 -7 -130 -57
-124 l-28 3 -3 113 -3 112 -44 0 -45 0 0 -115z"/>
</g>
</svg>
